<svg xmlns="http://www.w3.org/2000/svg" xmlns:xlink="http://www.w3.org/1999/xlink" width="100"
    zoomAndPan="magnify" viewBox="0 0 75 74.999997" height="100" preserveAspectRatio="xMidYMid meet"
    version="1.0">
    <path fill="#000000"
        d="M 40.199219 3.328125 C 36.316406 4.171875 33.253906 6.125 31.175781 9.0625 C 29.964844 10.765625 29.308594 12.121094 28.671875 14.257812 C 27.929688 16.726562 27.890625 20.21875 28.546875 22.601562 C 29.699219 26.710938 31.21875 28.910156 37.566406 35.605469 C 42.726562 41.050781 44.144531 43.144531 45.027344 46.660156 C 45.582031 48.878906 45.582031 52.105469 45.027344 54.300781 C 44.285156 57.238281 41.902344 61.535156 39.847656 63.609375 L 38.964844 64.511719 L 38.902344 61.71875 C 38.800781 56.808594 39.519531 53.625 41.738281 49.125 C 42.417969 47.75 42.972656 46.578125 42.972656 46.496094 C 42.972656 46.144531 42.089844 44.316406 41.925781 44.316406 C 41.429688 44.316406 38.328125 49.96875 37.917969 51.570312 C 37.730469 52.390625 37.382812 52.164062 36.910156 50.871094 C 35.882812 48.035156 33.621094 44.398438 31.320312 41.871094 C 30.726562 41.195312 30.234375 40.476562 30.234375 40.230469 C 30.234375 40.003906 30.890625 38.523438 31.671875 36.960938 C 32.472656 35.402344 33.109375 34.042969 33.109375 33.921875 C 33.109375 33.820312 32.78125 33.367188 32.390625 32.914062 L 31.691406 32.09375 L 31.175781 32.710938 C 30.890625 33.039062 30.066406 34.496094 29.371094 35.933594 C 28.648438 37.371094 27.972656 38.523438 27.847656 38.460938 C 27.726562 38.421875 26.984375 37.925781 26.207031 37.371094 C 24.292969 35.996094 20.820312 34.1875 18.707031 33.449219 C 16.074219 32.542969 13.035156 31.742188 12.398438 31.824219 C 11.863281 31.886719 11.820312 31.96875 11.390625 34.148438 C 10.792969 37.042969 10.589844 41.089844 10.898438 43.925781 C 11.101562 45.816406 11.863281 49.496094 12.253906 50.523438 C 12.355469 50.808594 12.210938 50.890625 11.390625 50.996094 C 8.90625 51.300781 5.574219 52.1875 3.171875 53.152344 C 1.714844 53.746094 0.4375 54.300781 0.296875 54.425781 C -0.0546875 54.691406 0.296875 55.492188 1.691406 57.710938 C 7.507812 66.875 16.136719 72.257812 24.953125 72.257812 C 28.21875 72.257812 32.265625 71.4375 35.699219 70.082031 L 37.589844 69.320312 L 39.210938 70 C 40.875 70.695312 43.238281 71.417969 45.335938 71.867188 C 46.9375 72.21875 52.753906 72.21875 54.375 71.890625 C 60.003906 70.675781 64.710938 67.902344 69.148438 63.199219 C 70.855469 61.390625 73.667969 57.488281 74.59375 55.636719 C 75.167969 54.527344 75.109375 54.464844 72.828125 53.480469 C 69.867188 52.226562 66.785156 51.363281 63.785156 50.996094 C 63.191406 50.914062 62.695312 50.789062 62.695312 50.726562 C 62.695312 50.644531 62.964844 49.496094 63.3125 48.179688 C 64.15625 44.789062 64.464844 41.152344 64.15625 37.722656 C 64.03125 36.222656 63.890625 34.96875 63.828125 34.90625 C 63.785156 34.847656 62.800781 35.070312 61.648438 35.378906 C 59.695312 35.914062 54.253906 38.421875 53.164062 39.285156 C 52.710938 39.613281 52.835938 40.003906 53.738281 41.132812 L 54.191406 41.707031 L 55.957031 40.640625 C 57.621094 39.632812 59.945312 38.585938 61.074219 38.296875 C 61.609375 38.152344 61.609375 38.175781 61.730469 39.449219 C 61.875 40.988281 61.585938 44.417969 61.136719 46.640625 C 60.4375 50.132812 58.445312 54.464844 56.226562 57.382812 C 55.03125 58.925781 53 60.957031 52.628906 60.957031 C 52.527344 60.957031 52.753906 60.300781 53.164062 59.480469 C 55.074219 55.699219 55.464844 50.5625 54.148438 46.472656 C 53 42.960938 50.65625 39.796875 44.082031 32.933594 C 38.492188 27.121094 36.992188 25.3125 36.027344 23.382812 C 34.753906 20.8125 34.898438 18.265625 36.417969 16.191406 C 36.746094 15.71875 37.136719 15.347656 37.28125 15.347656 C 37.402344 15.347656 37.855469 15.863281 38.246094 16.5 C 39.890625 19.109375 42.3125 20.445312 46.320312 20.875 C 48.394531 21.121094 48.683594 21.285156 50.574219 23.277344 C 52.792969 25.683594 53.574219 27.941406 53.800781 32.851562 C 53.945312 36.078125 53.882812 35.996094 55.609375 35.195312 C 56.882812 34.597656 58.195312 33.183594 59.410156 31.046875 C 61.75 26.9375 62.082031 22.519531 60.3125 18.984375 C 59.492188 17.382812 58.773438 16.417969 56.863281 14.320312 C 55.421875 12.757812 55.054688 12.226562 54.785156 11.28125 C 53.53125 7.007812 50.328125 4.214844 45.683594 3.308594 C 43.835938 2.960938 41.839844 2.960938 40.199219 3.328125 Z M 47.863281 10.480469 C 48.003906 10.601562 48.3125 11.054688 48.539062 11.507812 C 49.054688 12.492188 50.203125 13.046875 52.363281 13.355469 C 53.863281 13.5625 53.882812 13.5625 55.15625 14.917969 C 56.863281 16.726562 58.195312 18.492188 58.875 19.808594 C 59.164062 20.402344 59.410156 20.9375 59.410156 20.976562 C 59.410156 21.246094 58.113281 22.519531 57.949219 22.4375 C 57.847656 22.375 57.621094 21.964844 57.417969 21.554688 C 56.695312 20.011719 52.9375 16.785156 51.828125 16.785156 C 51.683594 16.785156 52.117188 17.382812 52.792969 18.101562 C 54.867188 20.339844 56.101562 22.414062 56.121094 23.691406 C 56.121094 24.304688 55.648438 24.839844 54.558594 25.476562 C 54.417969 25.558594 54.003906 25.085938 53.53125 24.328125 C 53.101562 23.628906 51.992188 22.292969 51.085938 21.367188 L 49.402344 19.703125 L 49.28125 18.285156 C 49.074219 15.738281 47.820312 13.292969 46.753906 13.292969 C 46.054688 13.292969 45.230469 12.429688 45.230469 11.691406 C 45.230469 10.355469 46.8125 9.597656 47.863281 10.480469 Z M 16.628906 35.460938 C 19.117188 36.285156 20.78125 37.023438 22.9375 38.316406 C 24.355469 39.160156 27.152344 41.214844 27.152344 41.421875 C 27.152344 41.480469 27.007812 42.140625 26.820312 42.878906 C 26.101562 45.917969 26.125 50.152344 26.84375 53.316406 C 27.007812 54.035156 27.152344 54.652344 27.152344 54.671875 C 27.152344 54.714844 25.980469 54.160156 24.5625 53.4375 C 21.910156 52.125 19.097656 51.28125 16.21875 50.996094 L 15.046875 50.871094 L 14.535156 49.289062 C 13.320312 45.507812 12.890625 41.050781 13.382812 37.433594 C 13.710938 35.09375 13.792969 34.660156 14 34.660156 C 14.101562 34.660156 15.292969 35.011719 16.628906 35.460938 Z M 30.5 44.769531 C 33.128906 47.871094 35.144531 52.308594 35.882812 56.519531 C 36.230469 58.574219 36.316406 64.453125 35.984375 64.453125 C 35.699219 64.453125 32.902344 60.898438 32 59.375 C 30.847656 57.425781 29.902344 55.289062 29.390625 53.355469 C 28.980469 51.855469 28.898438 51.117188 28.898438 48.222656 C 28.898438 44.890625 29.019531 43.699219 29.390625 43.699219 C 29.492188 43.699219 29.984375 44.195312 30.5 44.769531 Z M 65.265625 53.789062 C 66.539062 53.992188 70.8125 55.269531 71.285156 55.597656 C 71.675781 55.84375 71.203125 56.707031 69.5 58.902344 C 65.140625 64.535156 60.003906 68.003906 54.191406 69.320312 C 51.972656 69.8125 47.472656 69.753906 45.148438 69.199219 C 44.144531 68.949219 43.199219 68.683594 43.035156 68.601562 C 42.828125 68.476562 43.527344 68.210938 45.066406 67.757812 C 47.636719 67.019531 51.171875 65.355469 53.226562 63.875 C 55.28125 62.417969 57.621094 59.929688 59.308594 57.382812 C 60.148438 56.109375 60.847656 54.980469 60.847656 54.878906 C 60.847656 54.773438 61.03125 54.382812 61.257812 54.015625 C 61.667969 53.335938 61.691406 53.335938 62.863281 53.460938 C 63.5 53.542969 64.585938 53.6875 65.265625 53.789062 Z M 14.0625 54.796875 C 16.898438 60.074219 20.863281 63.917969 25.980469 66.300781 C 26.902344 66.730469 28.710938 67.410156 30.007812 67.800781 L 32.347656 68.519531 L 31.238281 68.828125 C 28.199219 69.691406 24.253906 69.917969 21.398438 69.402344 C 18.316406 68.847656 14.410156 67.101562 11.738281 65.109375 C 9.007812 63.054688 4.960938 58.617188 3.808594 56.417969 L 3.5 55.800781 L 4.589844 55.328125 C 7.015625 54.28125 10.199219 53.582031 12.234375 53.625 L 13.445312 53.664062 Z M 20.125 54.300781 C 22.054688 54.855469 23.328125 55.472656 25.402344 56.789062 C 27.273438 58 28.9375 59.707031 31.117188 62.621094 C 32.082031 63.9375 33.027344 65.128906 33.210938 65.273438 C 33.375 65.417969 33.519531 65.644531 33.519531 65.785156 C 33.519531 66.011719 33.273438 65.992188 32.246094 65.765625 C 27.375 64.65625 23.511719 62.480469 20.226562 59.027344 C 18.457031 57.15625 16.464844 54.382812 16.464844 53.746094 C 16.464844 53.460938 17.964844 53.6875 20.125 54.300781 Z M 20.125 54.300781 "
        fill-opacity="1" fill-rule="nonzero" />
</svg>