<svg xmlns="http://www.w3.org/2000/svg" xmlns:xlink="http://www.w3.org/1999/xlink" width="100" zoomAndPan="magnify" viewBox="0 0 75 74.999997" height="100" preserveAspectRatio="xMidYMid meet" version="1.0"><path fill="#000000" d="M 39.503906 3.800781 C 36.585938 4.4375 34.285156 5.90625 32.726562 8.117188 C 31.816406 9.398438 31.324219 10.417969 30.84375 12.027344 C 30.289062 13.882812 30.257812 16.507812 30.75 18.300781 C 31.617188 21.394531 32.757812 23.046875 37.527344 28.089844 C 41.402344 32.183594 42.46875 33.761719 43.132812 36.40625 C 43.546875 38.074219 43.546875 40.5 43.132812 42.15625 C 42.574219 44.367188 40.785156 47.597656 39.242188 49.160156 L 38.578125 49.839844 L 38.53125 47.734375 C 38.453125 44.042969 38.996094 41.644531 40.660156 38.261719 C 41.171875 37.222656 41.589844 36.34375 41.589844 36.28125 C 41.589844 36.019531 40.925781 34.644531 40.800781 34.644531 C 40.429688 34.644531 38.097656 38.894531 37.789062 40.097656 C 37.652344 40.71875 37.390625 40.546875 37.035156 39.574219 C 36.261719 37.441406 34.566406 34.703125 32.835938 32.804688 C 32.386719 32.292969 32.015625 31.75 32.015625 31.566406 C 32.015625 31.394531 32.511719 30.285156 33.097656 29.109375 C 33.699219 27.933594 34.179688 26.914062 34.179688 26.820312 C 34.179688 26.742188 33.929688 26.402344 33.636719 26.0625 L 33.113281 25.445312 L 32.726562 25.910156 C 32.511719 26.15625 31.894531 27.253906 31.367188 28.335938 C 30.828125 29.417969 30.320312 30.285156 30.226562 30.238281 C 30.132812 30.207031 29.578125 29.835938 28.992188 29.417969 C 27.554688 28.382812 24.949219 27.019531 23.359375 26.464844 C 21.382812 25.785156 19.097656 25.183594 18.617188 25.242188 C 18.21875 25.289062 18.1875 25.351562 17.863281 26.992188 C 17.414062 29.171875 17.261719 32.214844 17.492188 34.347656 C 17.644531 35.769531 18.21875 38.539062 18.511719 39.3125 C 18.585938 39.527344 18.480469 39.589844 17.863281 39.667969 C 15.996094 39.898438 13.492188 40.5625 11.6875 41.289062 C 10.589844 41.738281 9.632812 42.15625 9.527344 42.25 C 9.265625 42.449219 9.527344 43.050781 10.574219 44.722656 C 14.945312 51.617188 21.429688 55.667969 28.050781 55.667969 C 30.503906 55.667969 33.546875 55.046875 36.125 54.027344 L 37.542969 53.457031 L 38.761719 53.964844 C 40.011719 54.492188 41.789062 55.03125 43.363281 55.371094 C 44.566406 55.636719 48.9375 55.636719 50.15625 55.386719 C 54.386719 54.476562 57.921875 52.390625 61.253906 48.847656 C 62.535156 47.488281 64.648438 44.550781 65.34375 43.160156 C 65.777344 42.324219 65.730469 42.277344 64.015625 41.539062 C 61.792969 40.59375 59.480469 39.945312 57.226562 39.667969 C 56.777344 39.605469 56.40625 39.511719 56.40625 39.464844 C 56.40625 39.402344 56.609375 38.539062 56.871094 37.550781 C 57.503906 35 57.734375 32.261719 57.503906 29.679688 C 57.410156 28.550781 57.300781 27.609375 57.257812 27.5625 C 57.226562 27.515625 56.484375 27.6875 55.621094 27.917969 C 54.152344 28.320312 50.0625 30.207031 49.246094 30.855469 C 48.90625 31.101562 48.996094 31.394531 49.675781 32.246094 L 50.015625 32.679688 L 51.34375 31.875 C 52.59375 31.117188 54.339844 30.328125 55.1875 30.113281 C 55.589844 30.003906 55.589844 30.019531 55.683594 30.980469 C 55.789062 32.136719 55.574219 34.71875 55.234375 36.390625 C 54.710938 39.015625 53.210938 42.277344 51.542969 44.472656 C 50.648438 45.632812 49.121094 47.164062 48.84375 47.164062 C 48.765625 47.164062 48.9375 46.667969 49.246094 46.050781 C 50.679688 43.207031 50.972656 39.34375 49.984375 36.265625 C 49.121094 33.621094 47.363281 31.242188 42.421875 26.078125 C 38.222656 21.703125 37.097656 20.34375 36.371094 18.890625 C 35.414062 16.957031 35.523438 15.039062 36.664062 13.480469 C 36.910156 13.125 37.203125 12.847656 37.3125 12.847656 C 37.40625 12.847656 37.746094 13.230469 38.039062 13.710938 C 39.273438 15.675781 41.09375 16.679688 44.105469 17.003906 C 45.664062 17.191406 45.878906 17.3125 47.300781 18.8125 C 48.964844 20.621094 49.554688 22.320312 49.722656 26.015625 C 49.832031 28.445312 49.785156 28.382812 51.082031 27.777344 C 52.039062 27.332031 53.027344 26.265625 53.9375 24.65625 C 55.695312 21.566406 55.945312 18.242188 54.617188 15.582031 C 54 14.375 53.457031 13.648438 52.023438 12.074219 C 50.941406 10.898438 50.664062 10.496094 50.464844 9.785156 C 49.523438 6.570312 47.113281 4.46875 43.625 3.785156 C 42.238281 3.523438 40.738281 3.523438 39.503906 3.800781 Z M 45.261719 9.183594 C 45.371094 9.273438 45.601562 9.613281 45.769531 9.953125 C 46.15625 10.695312 47.023438 11.113281 48.644531 11.347656 C 49.769531 11.5 49.785156 11.5 50.742188 12.519531 C 52.023438 13.882812 53.027344 15.210938 53.535156 16.199219 C 53.753906 16.648438 53.9375 17.050781 53.9375 17.082031 C 53.9375 17.28125 52.964844 18.242188 52.839844 18.179688 C 52.765625 18.132812 52.59375 17.824219 52.441406 17.515625 C 51.898438 16.355469 49.074219 13.929688 48.242188 13.929688 C 48.132812 13.929688 48.457031 14.375 48.964844 14.917969 C 50.527344 16.601562 51.453125 18.164062 51.46875 19.121094 C 51.46875 19.585938 51.113281 19.988281 50.292969 20.46875 C 50.1875 20.527344 49.878906 20.171875 49.523438 19.601562 C 49.199219 19.074219 48.363281 18.070312 47.683594 17.375 L 46.417969 16.121094 L 46.328125 15.054688 C 46.171875 13.140625 45.230469 11.300781 44.429688 11.300781 C 43.902344 11.300781 43.285156 10.652344 43.285156 10.09375 C 43.285156 9.089844 44.476562 8.515625 45.261719 9.183594 Z M 21.796875 27.980469 C 23.667969 28.597656 24.917969 29.15625 26.539062 30.128906 C 27.601562 30.761719 29.703125 32.308594 29.703125 32.464844 C 29.703125 32.507812 29.59375 33.003906 29.453125 33.558594 C 28.914062 35.847656 28.929688 39.03125 29.46875 41.414062 C 29.59375 41.953125 29.703125 42.417969 29.703125 42.433594 C 29.703125 42.464844 28.820312 42.046875 27.757812 41.507812 C 25.765625 40.515625 23.652344 39.882812 21.488281 39.667969 L 20.609375 39.574219 L 20.222656 38.382812 C 19.3125 35.539062 18.988281 32.183594 19.359375 29.464844 C 19.605469 27.703125 19.667969 27.378906 19.824219 27.378906 C 19.898438 27.378906 20.796875 27.640625 21.796875 27.980469 Z M 32.21875 34.984375 C 34.195312 37.316406 35.707031 40.65625 36.261719 43.824219 C 36.523438 45.371094 36.585938 49.792969 36.339844 49.792969 C 36.125 49.792969 34.023438 47.117188 33.34375 45.972656 C 32.480469 44.503906 31.769531 42.898438 31.382812 41.445312 C 31.074219 40.316406 31.015625 39.757812 31.015625 37.578125 C 31.015625 35.074219 31.105469 34.179688 31.382812 34.179688 C 31.460938 34.179688 31.832031 34.550781 32.21875 34.984375 Z M 58.335938 41.769531 C 59.292969 41.921875 62.503906 42.882812 62.859375 43.128906 C 63.152344 43.316406 62.796875 43.964844 61.515625 45.617188 C 58.242188 49.855469 54.386719 52.464844 50.015625 53.457031 C 48.347656 53.828125 44.96875 53.78125 43.222656 53.363281 C 42.46875 53.175781 41.757812 52.976562 41.632812 52.914062 C 41.480469 52.820312 42.003906 52.621094 43.164062 52.28125 C 45.09375 51.722656 47.746094 50.472656 49.289062 49.359375 C 50.835938 48.261719 52.59375 46.390625 53.859375 44.472656 C 54.492188 43.515625 55.019531 42.664062 55.019531 42.589844 C 55.019531 42.511719 55.15625 42.21875 55.328125 41.9375 C 55.636719 41.429688 55.652344 41.429688 56.53125 41.523438 C 57.007812 41.582031 57.828125 41.691406 58.335938 41.769531 Z M 19.867188 42.527344 C 22 46.5 24.976562 49.390625 28.820312 51.183594 C 29.515625 51.507812 30.875 52.019531 31.847656 52.3125 L 33.605469 52.851562 L 32.773438 53.085938 C 30.488281 53.734375 27.527344 53.902344 25.378906 53.519531 C 23.0625 53.101562 20.132812 51.785156 18.125 50.285156 C 16.070312 48.742188 13.03125 45.402344 12.167969 43.746094 L 11.933594 43.285156 L 12.753906 42.929688 C 14.574219 42.140625 16.96875 41.613281 18.496094 41.644531 L 19.40625 41.675781 Z M 24.421875 42.15625 C 25.875 42.574219 26.832031 43.035156 28.390625 44.027344 C 29.792969 44.9375 31.046875 46.222656 32.679688 48.417969 C 33.40625 49.40625 34.117188 50.300781 34.253906 50.410156 C 34.378906 50.519531 34.488281 50.6875 34.488281 50.796875 C 34.488281 50.96875 34.300781 50.953125 33.53125 50.78125 C 29.871094 49.945312 26.96875 48.308594 24.5 45.710938 C 23.171875 44.304688 21.675781 42.21875 21.675781 41.738281 C 21.675781 41.523438 22.800781 41.691406 24.421875 42.15625 Z M 24.421875 42.15625 " fill-opacity="1" fill-rule="nonzero"/><path fill="#000000" d="M 8.894531 60.179688 C 8.816406 60.289062 8.105469 61.773438 7.320312 63.472656 C 6.546875 65.171875 5.527344 67.382812 5.066406 68.40625 C 4.585938 69.410156 4.246094 70.335938 4.292969 70.445312 C 4.355469 70.601562 4.648438 70.660156 5.21875 70.660156 C 6.207031 70.660156 6.300781 70.570312 6.871094 69.070312 L 7.210938 68.1875 L 9.972656 68.21875 L 12.753906 68.265625 L 13.214844 69.378906 C 13.710938 70.570312 13.832031 70.660156 15.007812 70.660156 C 15.40625 70.660156 15.699219 70.585938 15.746094 70.460938 C 15.777344 70.351562 15.332031 69.253906 14.742188 68.019531 C 14.15625 66.796875 13.152344 64.648438 12.488281 63.242188 C 10.898438 59.808594 11.054688 59.996094 9.957031 59.996094 C 9.417969 59.996094 8.984375 60.074219 8.894531 60.179688 Z M 10.976562 64.417969 C 11.425781 65.421875 11.78125 66.300781 11.78125 66.363281 C 11.796875 66.441406 10.960938 66.488281 9.941406 66.488281 C 8.925781 66.488281 8.089844 66.457031 8.089844 66.410156 C 8.089844 66.363281 8.261719 65.929688 8.460938 65.4375 C 9.417969 63.179688 9.804688 62.453125 9.972656 62.5 C 10.082031 62.546875 10.53125 63.394531 10.976562 64.417969 Z M 10.976562 64.417969 " fill-opacity="1" fill-rule="nonzero"/><path fill="#000000" d="M 16.996094 60.101562 C 16.9375 60.148438 16.890625 61.742188 16.890625 63.628906 C 16.890625 67.429688 17.011719 68.171875 17.800781 69.117188 C 18.046875 69.425781 18.617188 69.875 19.066406 70.121094 C 19.851562 70.554688 20.007812 70.585938 21.597656 70.585938 C 23.109375 70.585938 23.386719 70.539062 24.050781 70.199219 C 25.101562 69.65625 25.765625 68.835938 26.074219 67.679688 C 26.273438 66.90625 26.304688 66.101562 26.273438 63.394531 L 26.230469 60.074219 L 24.375 60.074219 L 24.300781 63.734375 C 24.222656 67.152344 24.207031 67.414062 23.898438 67.832031 C 23.433594 68.464844 22.726562 68.820312 21.796875 68.898438 C 20.71875 69.007812 19.746094 68.527344 19.25 67.648438 C 18.910156 67.058594 18.894531 66.859375 18.894531 63.613281 C 18.894531 60.628906 18.867188 60.164062 18.648438 60.085938 C 18.324219 59.964844 17.121094 59.964844 16.996094 60.101562 Z M 16.996094 60.101562 " fill-opacity="1" fill-rule="nonzero"/><path fill="#000000" d="M 28.898438 60.085938 C 28.820312 60.148438 28.777344 62.53125 28.777344 65.359375 L 28.777344 70.523438 L 29.75 70.476562 L 30.707031 70.429688 L 30.75 68.835938 L 30.796875 67.261719 L 33.546875 67.261719 L 34.640625 68.835938 C 35.242188 69.71875 35.875 70.476562 36.046875 70.539062 C 36.308594 70.644531 37.867188 70.554688 38.007812 70.429688 C 38.023438 70.414062 37.464844 69.609375 36.773438 68.652344 C 36.078125 67.679688 35.582031 66.875 35.691406 66.828125 C 36.277344 66.640625 37.125 65.792969 37.496094 65.019531 C 37.867188 64.277344 37.914062 64.046875 37.820312 63.304688 C 37.699219 62.238281 37.449219 61.726562 36.726562 61.09375 C 35.707031 60.195312 35.320312 60.101562 32.015625 60.027344 C 30.367188 59.996094 28.960938 60.011719 28.898438 60.085938 Z M 34.917969 62.066406 C 35.535156 62.390625 35.753906 62.792969 35.753906 63.660156 C 35.753906 64.957031 35.058594 65.34375 32.636719 65.421875 L 30.859375 65.484375 L 30.8125 63.796875 C 30.796875 62.855469 30.8125 62.003906 30.859375 61.882812 C 30.984375 61.554688 34.242188 61.710938 34.917969 62.066406 Z M 34.917969 62.066406 " fill-opacity="1" fill-rule="nonzero"/><path fill="#000000" d="M 43.640625 60.179688 C 43.546875 60.289062 43.195312 61.046875 42.824219 61.851562 C 41.542969 64.710938 40.769531 66.441406 39.84375 68.40625 C 38.839844 70.570312 38.839844 70.660156 39.890625 70.660156 C 40.910156 70.660156 41.046875 70.554688 41.527344 69.378906 L 41.972656 68.265625 L 47.5 68.265625 L 47.964844 69.347656 C 48.210938 69.933594 48.488281 70.476562 48.597656 70.539062 C 48.90625 70.753906 50.386719 70.675781 50.480469 70.445312 C 50.527344 70.335938 49.585938 68.171875 48.394531 65.652344 C 47.191406 63.117188 46.21875 61 46.21875 60.9375 C 46.21875 60.859375 46.082031 60.628906 45.894531 60.398438 C 45.617188 60.042969 45.460938 59.996094 44.675781 59.996094 C 44.152344 59.996094 43.71875 60.074219 43.640625 60.179688 Z M 45.726562 64.371094 C 46.171875 65.359375 46.527344 66.253906 46.527344 66.332031 C 46.527344 66.425781 45.800781 66.488281 44.675781 66.488281 C 43.65625 66.488281 42.824219 66.457031 42.824219 66.441406 C 42.824219 66.285156 44.429688 62.667969 44.566406 62.5 C 44.785156 62.238281 44.8125 62.28125 45.726562 64.371094 Z M 45.726562 64.371094 " fill-opacity="1" fill-rule="nonzero"/><path fill="#000000" d="M 59.820312 60.273438 C 59.726562 60.441406 58.96875 62.097656 58.121094 63.953125 C 57.285156 65.824219 56.269531 68.019531 55.882812 68.867188 C 55.480469 69.703125 55.1875 70.429688 55.234375 70.460938 C 55.371094 70.601562 56.546875 70.691406 56.917969 70.601562 C 57.226562 70.523438 57.410156 70.257812 57.765625 69.394531 L 58.242188 68.265625 L 60.960938 68.21875 L 63.679688 68.1875 L 64.203125 69.332031 C 64.496094 69.949219 64.851562 70.507812 64.988281 70.570312 C 65.34375 70.707031 66.488281 70.675781 66.71875 70.539062 C 66.859375 70.429688 66.671875 69.902344 65.929688 68.328125 C 65.375 67.183594 64.28125 64.863281 63.460938 63.164062 L 61.996094 60.074219 L 60.992188 60.027344 C 60.113281 59.996094 59.957031 60.027344 59.820312 60.273438 Z M 61.761719 63.8125 C 62.148438 64.648438 62.566406 65.589844 62.675781 65.898438 L 62.875 66.488281 L 61.039062 66.488281 C 59.835938 66.488281 59.1875 66.425781 59.1875 66.316406 C 59.1875 66.242188 59.511719 65.421875 59.894531 64.507812 C 60.730469 62.59375 60.867188 62.3125 60.976562 62.3125 C 61.023438 62.3125 61.378906 62.992188 61.761719 63.8125 Z M 61.761719 63.8125 " fill-opacity="1" fill-rule="nonzero"/><path fill="#000000" d="M 68.480469 60.179688 C 68.339844 60.320312 68.292969 61.585938 68.292969 65.359375 C 68.292969 70.121094 68.308594 70.351562 68.585938 70.507812 C 68.941406 70.691406 69.835938 70.707031 70.113281 70.539062 C 70.253906 70.429688 70.300781 69.269531 70.269531 65.234375 L 70.222656 60.074219 L 69.449219 60.027344 C 68.988281 59.996094 68.601562 60.058594 68.480469 60.179688 Z M 68.480469 60.179688 " fill-opacity="1" fill-rule="nonzero"/></svg>