<?xml version="1.0" standalone="no"?>
<!DOCTYPE svg PUBLIC "-//W3C//DTD SVG 1.1//EN" "http://www.w3.org/Graphics/SVG/1.1/DTD/svg11.dtd">
<svg xmlns="http://www.w3.org/2000/svg" xmlns:xlink="http://www.w3.org/1999/xlink" width="384" zoomAndPan="magnify" viewBox="0 0 384 266.250005" height="266.25" preserveAspectRatio="xMidYMid meet" version="1.0"><defs><g/><clipPath id="ec9de0fa0d"><path d="M 184 13 L 218 13 L 218 61.78125 L 184 61.78125 Z M 184 13 " clip-rule="nonzero"/></clipPath><clipPath id="186750000d"><rect x="0" width="219" y="0" height="62"/></clipPath></defs><path fill="#e8b3be" d="M 213.5625 1.945312 C 212.742188 2.03125 211.855469 2.171875 211.59375 2.277344 C 211.3125 2.398438 210.910156 2.484375 210.683594 2.484375 C 210.023438 2.484375 207.054688 3.429688 205.972656 4.003906 C 202.238281 5.925781 199.535156 7.824219 197.160156 10.164062 C 196.027344 11.28125 194.019531 13.691406 194.019531 13.933594 C 194.019531 14.003906 193.914062 14.195312 193.777344 14.335938 C 193.496094 14.648438 192.640625 16.167969 192.101562 17.320312 C 190.914062 19.796875 190.652344 20.460938 190.078125 22.503906 C 189.132812 25.871094 188.855469 30.023438 189.273438 34.421875 C 189.464844 36.53125 189.570312 37.054688 190.390625 40.003906 C 190.667969 41.015625 190.964844 42.097656 191.054688 42.429688 C 191.140625 42.761719 191.316406 43.269531 191.453125 43.566406 C 191.59375 43.863281 191.804688 44.421875 191.925781 44.804688 C 192.136719 45.519531 192.832031 47.144531 193.183594 47.769531 C 193.285156 47.964844 193.6875 48.75 194.074219 49.5 C 194.71875 50.773438 195.695312 52.378906 196.078125 52.847656 C 196.167969 52.953125 196.304688 53.214844 196.375 53.460938 C 196.445312 53.6875 196.550781 53.914062 196.621094 53.964844 C 196.671875 54.019531 196.953125 54.402344 197.25 54.839844 C 198 55.972656 199.796875 58.382812 200.039062 58.589844 C 200.164062 58.695312 200.441406 59.042969 200.667969 59.375 C 200.894531 59.707031 202.03125 61.085938 203.179688 62.414062 C 207.265625 67.140625 209.933594 70.28125 210.214844 70.71875 C 210.371094 70.964844 210.738281 71.433594 211.035156 71.785156 C 212.902344 74 215.363281 77.296875 216.113281 78.570312 C 216.410156 79.09375 217.035156 80.175781 217.492188 80.960938 C 217.945312 81.765625 218.414062 82.410156 218.554688 82.410156 C 218.78125 82.410156 219.496094 81.015625 219.496094 80.542969 C 219.496094 80.195312 219.984375 78.660156 220.386719 77.769531 C 220.578125 77.367188 220.71875 76.949219 220.71875 76.828125 C 220.71875 76.703125 221.066406 75.535156 221.503906 74.226562 C 221.941406 72.917969 222.394531 71.453125 222.535156 70.980469 C 222.671875 70.492188 222.917969 69.707031 223.058594 69.199219 C 223.214844 68.710938 223.335938 68.136719 223.335938 67.925781 C 223.335938 67.71875 222.570312 66.757812 221.292969 65.429688 C 220.160156 64.261719 219.164062 63.214844 219.042969 63.128906 C 218.9375 63.023438 218.398438 62.414062 217.839844 61.75 C 217.28125 61.085938 216.546875 60.25 216.199219 59.917969 C 215.589844 59.289062 212.953125 56.355469 212.253906 55.519531 C 211.140625 54.15625 210.476562 53.304688 210.25 52.988281 C 210.109375 52.796875 209.535156 52.117188 208.992188 51.503906 C 208.101562 50.511719 207.613281 49.832031 205.414062 46.550781 C 205.101562 46.0625 204.664062 45.363281 204.472656 44.980469 C 204.28125 44.59375 203.773438 43.652344 203.339844 42.882812 C 201.890625 40.265625 201.417969 39.097656 200.964844 36.777344 C 200.878906 36.289062 200.722656 35.660156 200.617188 35.382812 C 200.527344 35.085938 200.40625 33.617188 200.355469 32.082031 C 200.25 29.238281 200.441406 27.71875 201.121094 25.695312 C 201.769531 23.792969 203.476562 21.875 205.292969 20.964844 C 206.339844 20.441406 206.6875 20.375 208.101562 20.320312 C 209.5 20.269531 209.8125 20.304688 210.511719 20.652344 C 211.609375 21.210938 213.964844 23.8125 214.90625 25.554688 C 215.378906 26.429688 217.507812 28.347656 218.539062 28.835938 C 219.566406 29.324219 221.523438 30.023438 222.898438 30.390625 C 224.085938 30.722656 227.089844 30.949219 227.59375 30.757812 L 228.046875 30.582031 L 228.046875 27.929688 C 228.03125 26.21875 227.941406 24.875 227.785156 24.210938 C 227.648438 23.636719 227.523438 22.886719 227.523438 22.535156 C 227.523438 21.542969 226.929688 20.390625 226.128906 19.867188 C 225.746094 19.621094 225.359375 19.414062 225.257812 19.414062 C 224.976562 19.414062 223.683594 18.175781 223.40625 17.652344 C 223.109375 17.074219 223.09375 16.429688 223.355469 15.539062 C 223.703125 14.246094 225.519531 13.585938 226.808594 14.265625 C 227.332031 14.527344 228.222656 15.488281 228.222656 15.765625 C 228.222656 15.851562 228.398438 16.308594 228.605469 16.796875 C 229.21875 18.210938 230.195312 18.664062 233.980469 19.324219 C 236.894531 19.832031 237.296875 19.65625 237.296875 17.894531 C 237.296875 15.800781 236.074219 12.378906 234.625 10.480469 C 234.3125 10.058594 233.945312 9.535156 233.789062 9.292969 C 233.316406 8.558594 231.519531 6.777344 230.316406 5.855469 C 229.128906 4.929688 226.058594 3.269531 225.0625 3.007812 C 224.730469 2.921875 224.121094 2.765625 223.683594 2.660156 C 223.25 2.539062 222.550781 2.347656 222.113281 2.222656 C 221.171875 1.945312 215.710938 1.769531 213.5625 1.945312 Z M 213.5625 1.945312 " fill-opacity="1" fill-rule="nonzero"/><path fill="#542c3a" d="M 233.109375 26.394531 C 233.109375 26.566406 233.804688 27.597656 234.296875 28.140625 C 234.886719 28.820312 236.214844 30.792969 236.738281 31.785156 C 237.785156 33.757812 238.519531 36.324219 238.519531 38.050781 C 238.519531 39.796875 237.332031 41.3125 235.082031 42.464844 C 234.382812 42.832031 234.328125 43.390625 234.714844 47.003906 C 235.027344 49.933594 235.046875 50.648438 234.871094 52.394531 C 234.417969 56.96875 234.453125 57.195312 235.445312 57.664062 C 235.953125 57.910156 236.058594 57.910156 236.511719 57.664062 C 238.097656 56.863281 240.453125 54.542969 241.886719 52.414062 C 243.195312 50.492188 244.886719 47.300781 245.0625 46.445312 C 245.132812 46.113281 245.253906 45.765625 245.324219 45.675781 C 245.464844 45.519531 245.742188 44.351562 246.457031 40.949219 C 247.171875 37.648438 246.335938 32.167969 245.007812 31.472656 C 244.398438 31.15625 243.980469 31.523438 243.875 32.535156 C 243.753906 33.566406 243.316406 34.769531 242.8125 35.519531 C 242.234375 36.375 241.886719 36.097656 241.046875 34.210938 C 240.628906 33.269531 240.070312 32.203125 239.792969 31.820312 C 238.761719 30.425781 236.039062 27.648438 235.027344 26.933594 C 234.035156 26.273438 233.109375 25.992188 233.109375 26.394531 Z M 233.109375 26.394531 " fill-opacity="1" fill-rule="nonzero"/><path fill="#542c3a" d="M 83.558594 53.617188 C 82.933594 53.6875 81.640625 53.84375 80.679688 53.949219 C 77.730469 54.261719 72.742188 55.082031 71.171875 55.519531 C 70.839844 55.605469 69.863281 55.867188 68.988281 56.078125 C 66.894531 56.582031 64.871094 57.160156 63.492188 57.628906 C 62.863281 57.859375 62.132812 58.085938 61.835938 58.171875 C 61.222656 58.328125 59.898438 58.78125 59.390625 59.007812 C 59.199219 59.097656 58.816406 59.253906 58.519531 59.359375 C 56.425781 60.054688 54.730469 60.753906 52.847656 61.660156 C 51.644531 62.238281 50.074219 63.003906 49.359375 63.355469 C 48.640625 63.703125 47.386719 64.382812 46.566406 64.839844 C 44.417969 66.078125 43.234375 66.707031 43.003906 66.722656 C 42.902344 66.722656 42.34375 67.070312 41.765625 67.507812 C 41.191406 67.925781 40.527344 68.378906 40.285156 68.484375 C 40.039062 68.605469 39.691406 68.816406 39.5 68.992188 C 39.304688 69.148438 38.328125 69.847656 37.316406 70.507812 C 35.625 71.644531 32.9375 73.632812 31.332031 74.941406 C 30.964844 75.238281 29.8125 76.304688 28.800781 77.316406 C 27.773438 78.308594 26.269531 79.722656 25.46875 80.472656 C 24.089844 81.730469 22.328125 83.683594 20.164062 86.335938 C 19.621094 87 18.800781 87.996094 18.332031 88.535156 C 17.285156 89.792969 13.707031 94.90625 12.730469 96.546875 C 12.449219 97.035156 8.367188 105.148438 8.035156 105.898438 C 7.546875 106.980469 6.621094 109.425781 6.253906 110.59375 C 6.046875 111.257812 5.765625 112.09375 5.644531 112.425781 C 5.523438 112.757812 5.332031 113.386719 5.226562 113.824219 C 5.105469 114.257812 4.894531 114.992188 4.753906 115.480469 C 3.847656 118.480469 2.921875 123.488281 2.574219 127.347656 C 2.347656 129.859375 2.46875 141.097656 2.730469 142.265625 C 2.835938 142.703125 3.011719 143.644531 3.097656 144.363281 C 3.339844 146.089844 3.601562 147.554688 3.898438 148.722656 C 4.039062 149.246094 4.300781 150.382812 4.511719 151.253906 C 4.910156 152.914062 5.171875 153.835938 5.628906 155.285156 C 5.785156 155.792969 5.90625 156.28125 5.90625 156.402344 C 5.90625 156.523438 6.011719 156.855469 6.132812 157.152344 C 6.273438 157.46875 6.585938 158.375 6.867188 159.195312 C 7.144531 160.015625 7.53125 161.0625 7.757812 161.550781 C 7.964844 162.023438 8.382812 162.980469 8.699219 163.660156 C 10.164062 166.925781 12.539062 169.140625 12.539062 167.257812 C 12.539062 166.714844 11.945312 161.621094 11.578125 158.933594 C 10.742188 152.929688 10.742188 141.203125 11.59375 135.460938 C 12.222656 131.117188 12.539062 129.355469 13.0625 126.996094 C 13.164062 126.507812 13.359375 125.621094 13.496094 124.992188 C 13.777344 123.664062 15.871094 117.296875 16.273438 116.527344 C 16.429688 116.230469 16.550781 115.917969 16.550781 115.792969 C 16.550781 115.550781 16.726562 115.148438 17.773438 112.773438 C 19.519531 108.902344 20.757812 106.476562 22.066406 104.484375 C 22.433594 103.910156 22.902344 103.160156 23.09375 102.828125 C 23.933594 101.398438 24.195312 100.960938 25.1875 99.441406 C 26.953125 96.773438 28.015625 95.308594 29.289062 93.753906 C 35.046875 86.757812 38.746094 83.179688 44.507812 79.058594 C 45.589844 78.292969 46.636719 77.523438 46.828125 77.351562 C 47.019531 77.175781 47.683594 76.773438 48.3125 76.441406 C 48.9375 76.09375 50.160156 75.394531 51.015625 74.871094 C 53.703125 73.25 59.234375 70.542969 61.660156 69.671875 C 67.679688 67.492188 70.4375 66.6875 76.054688 65.414062 C 81.132812 64.261719 85.847656 63.859375 92.84375 63.964844 C 98.375 64.035156 99.71875 64.140625 104.414062 64.871094 C 105.285156 65.011719 106.226562 65.152344 106.507812 65.203125 C 108.898438 65.554688 113.085938 66.511719 115.753906 67.316406 C 116.246094 67.457031 117.03125 67.683594 117.5 67.820312 C 117.988281 67.960938 118.6875 68.207031 119.070312 68.34375 C 119.457031 68.484375 119.875 68.605469 120.011719 68.625 C 120.242188 68.625 123.292969 69.671875 124.132812 70.019531 C 125.089844 70.441406 130.554688 72.636719 131.898438 73.160156 C 134.792969 74.296875 140.761719 77.175781 143.152344 78.625 C 144.023438 79.148438 145.316406 79.878906 146.03125 80.265625 C 146.746094 80.664062 148.25 81.539062 149.347656 82.203125 C 150.445312 82.882812 151.667969 83.613281 152.035156 83.84375 C 152.417969 84.070312 153.238281 84.644531 153.882812 85.132812 C 154.53125 85.621094 156.1875 86.808594 157.566406 87.734375 C 158.945312 88.675781 160.726562 89.96875 161.511719 90.59375 C 162.296875 91.222656 163.308594 92.027344 163.761719 92.359375 C 164.199219 92.6875 164.703125 93.089844 164.859375 93.246094 C 165.019531 93.386719 165.855469 94.050781 166.710938 94.714844 C 168.59375 96.164062 173.585938 100.191406 174.582031 101.066406 C 174.964844 101.414062 176.027344 102.324219 176.9375 103.074219 C 177.84375 103.839844 178.699219 104.589844 178.839844 104.746094 C 178.976562 104.921875 179.535156 105.375 180.058594 105.796875 C 180.582031 106.195312 181.769531 107.242188 182.675781 108.117188 C 183.585938 109.007812 184.753906 110.054688 185.277344 110.472656 C 186.238281 111.203125 188.402344 113.175781 190.460938 115.148438 C 191.035156 115.722656 192.761719 117.296875 194.300781 118.65625 C 197.667969 121.675781 199.605469 123.4375 202.132812 125.777344 C 203.199219 126.769531 204.421875 127.871094 204.875 128.238281 C 205.328125 128.621094 206.550781 129.703125 207.613281 130.664062 C 208.660156 131.621094 210.441406 133.191406 211.558594 134.152344 C 212.691406 135.113281 214.367188 136.5625 215.308594 137.382812 C 216.914062 138.792969 217.769531 139.527344 220.910156 142.128906 C 221.695312 142.773438 222.8125 143.714844 223.40625 144.238281 C 223.980469 144.761719 225.132812 145.722656 225.953125 146.386719 C 226.773438 147.046875 227.59375 147.730469 227.785156 147.902344 C 227.976562 148.097656 228.328125 148.359375 228.570312 148.515625 C 228.816406 148.671875 229.480469 149.160156 230.054688 149.597656 C 232.445312 151.429688 236.703125 154.429688 239.390625 156.175781 C 240.210938 156.714844 241.082031 157.308594 241.328125 157.519531 C 242.078125 158.113281 242.707031 158.566406 243.371094 158.96875 C 244.679688 159.753906 246.285156 160.679688 246.457031 160.746094 C 246.648438 160.816406 248.777344 162.160156 249.511719 162.667969 C 249.757812 162.84375 251.046875 163.523438 252.390625 164.203125 C 253.734375 164.867188 255.269531 165.722656 255.792969 166.070312 C 256.578125 166.59375 261.621094 169.160156 263.996094 170.242188 C 265.21875 170.800781 273 174.0625 273.417969 174.203125 C 273.664062 174.289062 274.292969 174.515625 274.816406 174.726562 C 277.257812 175.667969 280.347656 176.679688 284.414062 177.867188 C 285.039062 178.058594 285.949219 178.320312 286.417969 178.460938 C 286.90625 178.601562 287.605469 178.757812 287.988281 178.828125 C 288.984375 178.984375 290.972656 179.421875 292.019531 179.714844 C 292.507812 179.855469 293.191406 179.960938 293.519531 179.960938 C 293.871094 179.960938 294.742188 180.082031 295.476562 180.207031 C 298.738281 180.832031 307.429688 180.992188 311.894531 180.484375 C 314.460938 180.207031 316.257812 179.925781 317.132812 179.683594 C 317.621094 179.558594 318.753906 179.28125 319.660156 179.070312 C 320.570312 178.863281 321.652344 178.582031 322.070312 178.460938 C 322.472656 178.320312 322.90625 178.214844 323.03125 178.214844 C 323.222656 178.214844 326.171875 177.152344 326.902344 176.820312 C 327.09375 176.734375 327.6875 176.488281 328.210938 176.261719 C 332.242188 174.585938 340.460938 169.683594 342.554688 167.691406 C 342.679688 167.570312 343.21875 167.132812 343.742188 166.699219 C 344.265625 166.28125 345.46875 165.214844 346.414062 164.359375 C 348.542969 162.40625 348.542969 162.371094 346.65625 160.730469 C 345.90625 160.085938 344.09375 158.425781 342.644531 157.046875 C 337.984375 152.617188 337.25 152.003906 336.796875 152.160156 C 336.257812 152.355469 335.90625 152.667969 333.203125 155.320312 C 330.0625 158.390625 327.8125 160.121094 324.339844 162.125 C 321.808594 163.574219 318.929688 164.953125 318.421875 164.953125 C 318.265625 164.953125 318.089844 165.003906 318.039062 165.058594 C 317.863281 165.234375 315.945312 166 315.699219 166 C 315.578125 166 314.671875 166.226562 313.695312 166.507812 C 312.699219 166.785156 311.144531 167.117188 310.238281 167.222656 C 309.332031 167.328125 308.265625 167.484375 307.882812 167.570312 C 307.5 167.660156 305.789062 167.746094 304.097656 167.746094 C 299.875 167.746094 297.0625 167.34375 292.613281 166.105469 C 292.089844 165.964844 291.496094 165.757812 291.304688 165.667969 C 291.113281 165.582031 290.328125 165.300781 289.578125 165.039062 C 287.902344 164.5 286.382812 163.785156 284.414062 162.597656 C 283.59375 162.089844 282.546875 161.480469 282.054688 161.203125 C 280.851562 160.539062 277.867188 158.390625 276.925781 157.535156 C 273.523438 154.464844 270.503906 150.941406 268.882812 148.199219 C 268.445312 147.484375 267.765625 146.367188 267.363281 145.722656 C 266.945312 145.09375 266.613281 144.519531 266.613281 144.464844 C 266.613281 144.414062 266.230469 143.59375 265.757812 142.632812 C 264.589844 140.261719 263.507812 136.925781 262.949219 133.976562 C 262.128906 129.648438 262.074219 120.367188 262.84375 117.3125 C 262.984375 116.789062 263.261719 115.691406 263.453125 114.871094 C 264.238281 111.554688 266.105469 107.105469 267.589844 104.921875 C 267.886719 104.484375 268.394531 103.664062 268.742188 103.074219 C 269.597656 101.625 271.0625 99.652344 272.40625 98.1875 C 273 97.523438 273.800781 96.617188 274.1875 96.144531 C 274.554688 95.691406 275.371094 94.90625 276.019531 94.417969 C 276.648438 93.910156 277.484375 93.195312 277.867188 92.828125 C 278.253906 92.460938 278.792969 92.042969 279.054688 91.902344 C 279.335938 91.746094 279.996094 91.292969 280.539062 90.890625 C 282.179688 89.652344 286.769531 87.121094 287.378906 87.121094 C 287.449219 87.121094 287.746094 87.019531 288.023438 86.878906 C 289.699219 86.058594 292.246094 85.167969 294.238281 84.695312 C 297.8125 83.824219 304.882812 83.371094 307.882812 83.824219 C 308.5625 83.929688 309.820312 84.105469 310.675781 84.242188 C 313.101562 84.59375 316.554688 85.515625 318.179688 86.25 C 319.46875 86.824219 320.167969 87.105469 320.640625 87.191406 C 321.335938 87.347656 325.351562 89.375 326.433594 90.125 C 328.054688 91.257812 330.761719 93.5625 332.136719 94.976562 C 333.917969 96.824219 336.273438 98.917969 336.726562 99.058594 C 337.390625 99.269531 338.070312 98.78125 340.324219 96.40625 C 341.578125 95.097656 343.203125 93.441406 343.917969 92.707031 C 344.632812 91.992188 345.628906 90.890625 346.132812 90.265625 C 346.882812 89.339844 347.058594 89.007812 347.058594 88.464844 C 347.058594 87.664062 346.710938 86.964844 346.0625 86.390625 C 345.800781 86.164062 345.261719 85.585938 344.878906 85.117188 C 344.492188 84.628906 343.832031 83.84375 343.375 83.371094 C 342.921875 82.882812 342.417969 82.339844 342.226562 82.132812 C 341.824219 81.660156 340.96875 81.03125 338.683594 79.480469 C 337.671875 78.78125 336.519531 77.996094 336.101562 77.699219 C 335.699219 77.421875 335.316406 77.175781 335.261719 77.175781 C 335.210938 77.175781 334.738281 76.894531 334.234375 76.566406 C 332.957031 75.710938 330.113281 74.3125 327.863281 73.441406 C 327.425781 73.265625 326.851562 73.023438 326.589844 72.882812 C 326.308594 72.742188 325.996094 72.636719 325.890625 72.636719 C 325.769531 72.636719 325.488281 72.535156 325.246094 72.410156 C 324.144531 71.851562 322.800781 71.433594 319.398438 70.613281 C 318.441406 70.386719 317.410156 70.125 317.113281 70.019531 C 316.816406 69.917969 315.980469 69.777344 315.230469 69.671875 C 314.480469 69.585938 313.816406 69.460938 313.746094 69.410156 C 313.34375 69.183594 308.390625 68.800781 304.375 68.695312 C 300.484375 68.605469 299.367188 68.640625 296.367188 68.957031 C 292.386719 69.375 291.96875 69.445312 288.25 70.386719 C 284.414062 71.363281 282.789062 71.851562 281.882812 72.289062 C 281.691406 72.394531 281.304688 72.535156 281.007812 72.621094 C 279.140625 73.195312 274.621094 75.273438 273.085938 76.25 C 264.464844 81.816406 263.054688 83.003906 257.15625 89.636719 C 256.507812 90.351562 253.492188 94.851562 252.445312 96.632812 C 250.332031 100.226562 248.253906 105.238281 247.398438 108.675781 C 247.3125 109.058594 247.15625 109.53125 247.070312 109.722656 C 246.648438 110.613281 245.828125 114.644531 245.5 117.398438 C 245.394531 118.253906 245.21875 120.699219 245.132812 122.792969 C 244.957031 126.5625 244.976562 127.121094 245.480469 132.496094 C 245.65625 134.257812 246.109375 136.945312 246.457031 138.183594 C 246.597656 138.671875 246.71875 139.179688 246.71875 139.335938 C 246.71875 139.632812 247.367188 141.8125 247.609375 142.355469 C 247.695312 142.546875 247.835938 143.019531 247.921875 143.402344 C 248.027344 143.785156 248.378906 144.917969 248.710938 145.933594 C 249.425781 148.042969 249.460938 148.199219 249.023438 148.199219 C 248.691406 148.199219 244.574219 145.636719 243.335938 144.65625 C 242.96875 144.363281 242.355469 143.925781 241.992188 143.679688 C 241.152344 143.105469 239.863281 142.039062 238.917969 141.117188 L 238.167969 140.398438 L 238.167969 105.636719 C 238.167969 71.121094 238.167969 70.894531 237.820312 70.542969 C 237.488281 70.210938 237.246094 70.195312 232.550781 70.195312 C 229.828125 70.195312 227.507812 70.265625 227.367188 70.351562 C 227.246094 70.441406 227.070312 70.804688 227 71.171875 C 226.914062 71.554688 226.390625 73.230469 225.8125 74.90625 C 225.257812 76.582031 224.714844 78.273438 224.609375 78.660156 C 224.175781 80.246094 223.457031 82.707031 223.25 83.285156 C 223.109375 83.613281 222.882812 84.367188 222.726562 84.941406 C 222.273438 86.496094 221.085938 90.125 220.894531 90.472656 C 220.789062 90.664062 220.71875 97.417969 220.71875 108.046875 C 220.71875 117.539062 220.667969 125.425781 220.613281 125.585938 C 220.457031 125.984375 220.003906 125.914062 219.410156 125.410156 C 219.132812 125.164062 218.3125 124.503906 217.59375 123.925781 C 216.898438 123.367188 215.78125 122.410156 215.136719 121.816406 C 214.488281 121.203125 213.773438 120.558594 213.546875 120.367188 C 213.320312 120.15625 212.464844 119.425781 211.644531 118.707031 C 210.824219 117.992188 209.828125 117.121094 209.429688 116.789062 C 208.15625 115.722656 205.136719 113.070312 204.140625 112.148438 C 203.617188 111.640625 202.710938 110.875 202.132812 110.402344 C 201.558594 109.949219 201.050781 109.511719 201 109.460938 C 200.914062 109.371094 199.011719 107.714844 197.964844 106.84375 C 197.683594 106.597656 196.898438 105.898438 196.21875 105.289062 C 195.539062 104.679688 194.210938 103.542969 193.234375 102.757812 C 191.714844 101.535156 189.289062 99.425781 187.914062 98.132812 C 187.667969 97.90625 186.953125 97.3125 186.324219 96.789062 C 185.695312 96.285156 185.066406 95.761719 184.929688 95.636719 C 184.476562 95.21875 182.085938 93.144531 181.195312 92.425781 C 180.722656 92.027344 180.128906 91.539062 179.886719 91.347656 C 179.640625 91.136719 178.785156 90.4375 177.964844 89.792969 C 177.144531 89.148438 176.394531 88.535156 176.289062 88.429688 C 176.1875 88.34375 175.488281 87.785156 174.738281 87.210938 C 173.324219 86.128906 170.882812 84.15625 168.839844 82.445312 C 168.195312 81.90625 166.972656 80.980469 166.117188 80.402344 C 165.261719 79.828125 164.09375 79.007812 163.5 78.570312 C 162.050781 77.507812 160.238281 76.214844 158.824219 75.203125 C 157.410156 74.226562 153.167969 71.417969 153.0625 71.417969 C 153.03125 71.417969 152.714844 71.226562 152.347656 70.996094 C 150.8125 70.019531 146.152344 67.402344 144.636719 66.671875 C 141.042969 64.925781 137.8125 63.390625 137.707031 63.390625 C 137.65625 63.390625 136.3125 62.832031 134.707031 62.152344 C 133.117188 61.46875 131.53125 60.808594 131.199219 60.683594 C 129.628906 60.089844 126.957031 59.203125 125.527344 58.78125 C 124.671875 58.519531 123.609375 58.207031 123.171875 58.066406 C 120.152344 57.140625 118.058594 56.566406 117.152344 56.390625 C 116.574219 56.285156 115.753906 56.113281 115.320312 55.972656 C 113.226562 55.363281 109.335938 54.734375 104.238281 54.140625 C 103.277344 54.035156 101.832031 53.859375 101.011719 53.757812 C 99.246094 53.53125 85.183594 53.40625 83.558594 53.617188 Z M 83.558594 53.617188 " fill-opacity="1" fill-rule="nonzero"/><path fill="#542c3a" d="M 82.949219 69.847656 C 82.375 69.917969 81.152344 70.074219 80.246094 70.179688 C 78.445312 70.386719 74.328125 71.242188 72.652344 71.75 C 68.292969 73.09375 65.097656 74.261719 62.882812 75.324219 C 57.191406 78.101562 51.851562 81.816406 47.875 85.8125 C 44.246094 89.476562 43.355469 90.507812 41.121094 93.597656 C 40.808594 94.050781 40.230469 94.835938 39.828125 95.34375 C 38.503906 97.121094 35.414062 102.742188 34.960938 104.222656 C 34.890625 104.46875 34.769531 104.730469 34.699219 104.835938 C 34.613281 104.921875 34.195312 106.074219 33.757812 107.367188 C 32.761719 110.351562 32.691406 110.558594 32.378906 111.726562 C 32.222656 112.25 32.011719 113.039062 31.890625 113.472656 C 30.425781 118.847656 30.230469 129.40625 31.453125 137.292969 C 31.75 139.265625 32.292969 141.550781 32.796875 143.050781 C 32.902344 143.332031 33.09375 143.960938 33.214844 144.449219 C 33.441406 145.320312 33.566406 145.6875 34.226562 147.503906 C 35.273438 150.417969 35.851562 151.726562 36.53125 152.738281 C 36.933594 153.367188 37.542969 154.414062 37.875 155.09375 C 39.359375 158.078125 45.011719 165.300781 47.351562 167.1875 C 47.734375 167.5 48.710938 168.339844 49.53125 169.070312 C 51.292969 170.640625 54 172.71875 55.167969 173.433594 C 55.640625 173.714844 56.234375 174.082031 56.476562 174.238281 C 56.738281 174.410156 57.070312 174.605469 57.210938 174.671875 C 57.351562 174.742188 58.066406 175.164062 58.816406 175.632812 C 59.546875 176.085938 60.367188 176.503906 60.648438 176.574219 C 60.910156 176.644531 61.222656 176.75 61.3125 176.820312 C 61.414062 176.890625 62.269531 177.273438 63.230469 177.675781 C 64.191406 178.078125 65.21875 178.53125 65.5 178.652344 C 66.6875 179.191406 68.9375 179.980469 70.996094 180.570312 C 72.199219 180.921875 73.527344 181.320312 73.960938 181.445312 C 74.851562 181.707031 76.703125 182.039062 80.417969 182.613281 C 82.703125 182.960938 83.613281 182.996094 89.582031 182.996094 C 94.03125 182.996094 96.699219 182.929688 97.695312 182.769531 C 98.515625 182.648438 99.753906 182.472656 100.46875 182.386719 C 101.65625 182.230469 103.015625 181.898438 105.984375 181.078125 C 106.558594 180.921875 107.308594 180.730469 107.640625 180.640625 C 107.992188 180.570312 108.84375 180.257812 109.5625 179.960938 C 110.277344 179.648438 111.339844 179.226562 111.917969 179.019531 C 112.492188 178.792969 113.15625 178.53125 113.398438 178.441406 C 113.644531 178.339844 114.308594 178.09375 114.882812 177.882812 C 116.15625 177.414062 118.964844 176.015625 119.332031 175.6875 C 119.488281 175.546875 119.683594 175.425781 119.769531 175.425781 C 119.996094 175.425781 122.195312 174.082031 123.625 173.066406 C 126.296875 171.183594 127.691406 170.03125 129.734375 168.007812 C 131.445312 166.296875 131.933594 165.6875 132.421875 164.691406 C 133.605469 162.179688 133.292969 161.394531 129.996094 158.777344 C 128.84375 157.867188 127.1875 156.417969 126.3125 155.582031 C 124.480469 153.835938 123.574219 153.261719 122.5625 153.261719 C 121.914062 153.261719 121.757812 153.367188 119.683594 155.496094 C 117.203125 158.042969 115.144531 159.789062 113.191406 161.042969 C 109.859375 163.171875 108.757812 163.785156 107.117188 164.480469 C 104.308594 165.6875 103.488281 166 103.226562 166 C 103.050781 166 102.703125 166.105469 102.441406 166.226562 C 102.003906 166.453125 100.277344 166.90625 97.78125 167.484375 C 97.207031 167.605469 95.410156 167.851562 93.804688 168.023438 C 89.71875 168.425781 85.007812 168.25 81.292969 167.554688 C 80.769531 167.449219 79.984375 167.292969 79.546875 167.222656 C 78.65625 167.066406 75.8125 166.175781 74.1875 165.546875 C 71.238281 164.414062 70.578125 164.097656 68.449219 162.84375 C 64.539062 160.539062 62.898438 159.300781 59.582031 156.054688 C 56.234375 152.789062 53.476562 149.40625 52.8125 147.765625 C 52.65625 147.378906 52.359375 146.59375 52.132812 146.019531 C 51.921875 145.441406 51.695312 144.816406 51.609375 144.625 C 51.539062 144.429688 51.257812 143.769531 51.015625 143.140625 C 50.753906 142.511719 50.457031 141.761719 50.316406 141.480469 C 49.097656 138.757812 48.242188 135.410156 47.507812 130.367188 C 47.195312 128.148438 47.230469 123.367188 47.59375 121.5 C 47.683594 120.976562 47.855469 120.035156 47.980469 119.40625 C 48.101562 118.777344 48.242188 117.957031 48.3125 117.574219 C 48.695312 115.515625 49.757812 111.9375 50.40625 110.59375 C 50.492188 110.402344 50.894531 109.460938 51.292969 108.5 C 52.339844 105.96875 52.898438 104.992188 54.75 102.390625 C 55.988281 100.664062 56.007812 100.648438 58.710938 97.769531 C 61.503906 94.800781 62.078125 94.292969 64.714844 92.496094 C 65.621094 91.886719 66.6875 91.152344 67.070312 90.890625 C 68.796875 89.6875 73.824219 87.609375 77.191406 86.722656 C 81.832031 85.464844 83.945312 85.097656 87.574219 84.921875 C 90.417969 84.785156 94.605469 85.167969 96.421875 85.742188 C 96.734375 85.847656 97.363281 85.988281 97.816406 86.074219 C 98.289062 86.144531 99.214844 86.390625 99.875 86.582031 C 100.554688 86.792969 101.515625 87.070312 102.039062 87.226562 C 104.464844 87.890625 106.769531 88.988281 109.316406 90.664062 C 110.292969 91.3125 111.148438 91.835938 111.234375 91.835938 C 111.585938 91.835938 113.992188 93.964844 118.179688 97.960938 C 120.152344 99.828125 120.570312 100.105469 121.128906 99.929688 C 121.933594 99.6875 123.957031 97.90625 127.414062 94.453125 C 129.628906 92.21875 131.042969 90.664062 131.164062 90.332031 C 131.304688 89.898438 131.269531 89.652344 131.042969 89.113281 C 130.691406 88.363281 124.953125 82.269531 123.695312 81.328125 C 122.632812 80.542969 119.980469 78.730469 119.28125 78.328125 C 114.585938 75.550781 111.953125 74.296875 108.515625 73.160156 C 107.992188 72.988281 106.855469 72.605469 106 72.308594 C 104.640625 71.816406 101.777344 71.085938 99.179688 70.542969 C 98.375 70.386719 97.207031 70.230469 93.59375 69.847656 C 91.902344 69.65625 84.414062 69.671875 82.949219 69.847656 Z M 82.949219 69.847656 " fill-opacity="1" fill-rule="nonzero"/><path fill="#e8b3be" d="M 170.8125 71.101562 C 169.101562 71.207031 168.558594 71.3125 166.152344 72.011719 C 165.019531 72.324219 164.371094 72.796875 164.371094 73.25 C 164.371094 73.597656 166.082031 75.167969 168.316406 76.863281 L 169.398438 77.699219 L 172.328125 77.699219 C 173.933594 77.699219 175.699219 77.769531 176.222656 77.855469 C 179.554688 78.433594 180.496094 78.640625 182.066406 79.113281 C 184.507812 79.863281 186.515625 80.753906 190.09375 82.707031 C 191.402344 83.421875 191.664062 83.648438 191.664062 84 C 191.664062 84.398438 191.613281 84.417969 190.792969 84.367188 C 190.320312 84.332031 189.691406 84.207031 189.394531 84.085938 C 188.75 83.808594 187.632812 83.511719 186.167969 83.214844 C 185.539062 83.074219 184.648438 82.898438 184.160156 82.792969 C 180.828125 82.113281 175.871094 81.746094 175.871094 82.183594 C 175.871094 82.5 176.429688 83.074219 177.828125 84.171875 C 178.714844 84.871094 179.535156 85.535156 179.625 85.640625 C 179.726562 85.761719 180.511719 86.390625 181.367188 87.054688 C 182.242188 87.699219 183.097656 88.378906 183.289062 88.535156 C 184.5625 89.636719 186.273438 91.03125 187.390625 91.902344 C 188.105469 92.480469 188.785156 93.019531 188.871094 93.144531 C 188.976562 93.246094 189.554688 93.71875 190.179688 94.171875 C 190.808594 94.625 191.59375 95.253906 191.925781 95.550781 C 192.257812 95.867188 193.128906 96.582031 193.84375 97.15625 C 194.5625 97.734375 195.972656 98.902344 196.988281 99.773438 C 198 100.648438 199.132812 101.589844 199.515625 101.886719 C 199.902344 102.164062 200.25 102.425781 200.300781 102.480469 C 200.527344 102.707031 203.144531 104.976562 204.226562 105.882812 C 204.910156 106.441406 205.484375 106.964844 205.539062 107.015625 C 205.589844 107.085938 206.289062 107.714844 207.109375 108.414062 C 207.929688 109.128906 209.0625 110.15625 209.636719 110.699219 C 212.394531 113.316406 215.03125 115.394531 215.589844 115.394531 C 215.710938 115.394531 215.867188 115.132812 215.9375 114.78125 C 216.128906 113.699219 215.9375 96.285156 215.726562 96.003906 C 215.605469 95.867188 215.464844 95.480469 215.398438 95.148438 C 215.203125 94.15625 214.4375 92.234375 213.964844 91.539062 C 213.703125 91.171875 213.269531 90.472656 212.972656 89.984375 C 211.765625 87.976562 207.109375 83.25 204.226562 81.101562 C 204.035156 80.960938 203.652344 80.648438 203.355469 80.421875 C 202.34375 79.617188 199.550781 77.785156 198.503906 77.210938 C 197.910156 76.878906 197.386719 76.566406 197.335938 76.496094 C 197.230469 76.339844 194.769531 75.167969 194.195312 74.996094 C 193.949219 74.925781 193.6875 74.800781 193.582031 74.734375 C 193.496094 74.664062 192.816406 74.4375 192.101562 74.210938 C 191.386719 74 190.511719 73.71875 190.179688 73.597656 C 188.976562 73.144531 187.71875 72.8125 186.917969 72.691406 C 186.445312 72.636719 185.941406 72.515625 185.785156 72.429688 C 185.609375 72.339844 184.945312 72.203125 184.300781 72.113281 C 183.636719 72.027344 182.800781 71.871094 182.414062 71.785156 C 180.199219 71.242188 174.125 70.875 170.8125 71.101562 Z M 170.8125 71.101562 " fill-opacity="1" fill-rule="nonzero"/><path fill="#e8b3be" d="M 141.304688 89.007812 C 139.539062 89.898438 134.164062 95.273438 134.164062 96.128906 C 134.164062 96.5625 134.777344 96.390625 135.996094 95.570312 C 136.679688 95.132812 137.847656 94.433594 138.617188 94.03125 C 140.429688 93.074219 140.988281 92.722656 141.40625 92.183594 C 141.597656 91.9375 142.175781 91.292969 142.664062 90.753906 C 143.171875 90.195312 143.589844 89.636719 143.589844 89.496094 C 143.589844 88.851562 142.210938 88.554688 141.304688 89.007812 Z M 141.304688 89.007812 " fill-opacity="1" fill-rule="nonzero"/><path fill="#542c3a" d="M 147.324219 92.636719 C 147.027344 92.777344 146.554688 93.144531 146.277344 93.421875 L 145.769531 93.945312 L 145.71875 137.121094 C 145.683594 174.933594 145.699219 180.308594 145.925781 180.535156 C 146.136719 180.746094 147.183594 180.816406 151.476562 180.921875 C 158.859375 181.09375 161.980469 181.007812 162.382812 180.605469 C 162.679688 180.328125 162.695312 178.652344 162.75 150.277344 C 162.820312 120.960938 162.835938 120.226562 163.167969 119.894531 C 163.480469 119.582031 163.5 119.582031 164.496094 120.347656 C 165.035156 120.769531 165.769531 121.414062 166.101562 121.761719 C 166.429688 122.128906 167.285156 122.878906 168 123.4375 C 169.136719 124.34375 171.648438 126.683594 176.902344 131.746094 C 177.828125 132.632812 178.890625 133.59375 179.273438 133.890625 C 179.660156 134.1875 181.195312 135.636719 182.675781 137.101562 C 184.160156 138.585938 185.785156 140.121094 186.273438 140.539062 C 186.777344 140.957031 187.546875 141.777344 188.015625 142.355469 C 188.488281 142.929688 190.214844 144.761719 191.855469 146.457031 C 193.496094 148.128906 195.347656 150.136719 195.941406 150.90625 C 196.550781 151.671875 197.40625 152.703125 197.839844 153.191406 C 198.277344 153.679688 199.273438 154.761719 200.039062 155.617188 C 200.808594 156.453125 201.664062 157.46875 201.925781 157.867188 C 202.1875 158.253906 202.9375 159.125 203.582031 159.804688 C 204.226562 160.46875 205.117188 161.53125 205.554688 162.160156 C 206.007812 162.789062 206.757812 163.730469 207.210938 164.273438 C 208.46875 165.722656 208.730469 166.035156 209.0625 166.558594 C 209.238281 166.820312 209.828125 167.535156 210.386719 168.128906 C 210.945312 168.738281 211.765625 169.71875 212.21875 170.3125 C 212.675781 170.902344 213.144531 171.496094 213.269531 171.621094 C 213.390625 171.742188 213.984375 172.457031 214.59375 173.226562 C 216.148438 175.128906 219.847656 178.738281 221.226562 179.683594 C 223.09375 180.972656 223.914062 181.183594 227.070312 181.183594 C 228.78125 181.183594 230.71875 181.058594 232.394531 180.832031 L 235.027344 180.484375 L 235.953125 180.867188 C 236.441406 181.078125 236.949219 181.304688 237.035156 181.375 C 237.140625 181.445312 238.03125 181.933594 239.042969 182.457031 C 240.054688 182.980469 241.34375 183.679688 241.921875 183.992188 C 242.496094 184.324219 243.632812 184.898438 244.449219 185.265625 C 245.269531 185.632812 247 186.453125 248.289062 187.0625 C 249.582031 187.691406 251.308594 188.476562 252.128906 188.808594 C 252.949219 189.121094 253.769531 189.472656 253.960938 189.558594 C 254.152344 189.644531 254.746094 189.890625 255.269531 190.082031 C 255.792969 190.292969 256.421875 190.535156 256.648438 190.625 C 257.242188 190.867188 262.894531 192.734375 264.957031 193.378906 C 265.914062 193.675781 266.945312 193.992188 267.222656 194.097656 C 267.9375 194.304688 270.382812 194.953125 271.238281 195.144531 C 276.664062 196.363281 280.101562 196.90625 286.941406 197.671875 C 290.207031 198.023438 298.757812 198.023438 302.996094 197.671875 C 309.996094 197.082031 314.601562 196.398438 318.351562 195.421875 C 318.839844 195.28125 320.046875 194.96875 321.058594 194.722656 C 324.582031 193.816406 325.351562 193.589844 326.992188 192.960938 C 327.898438 192.613281 328.894531 192.265625 329.171875 192.175781 C 329.46875 192.089844 330.515625 191.707031 331.527344 191.304688 C 332.539062 190.902344 333.515625 190.535156 333.710938 190.484375 C 333.902344 190.414062 334.214844 190.273438 334.40625 190.136719 C 334.597656 190.011719 334.878906 189.90625 335.035156 189.90625 C 335.191406 189.90625 335.417969 189.785156 335.542969 189.644531 C 335.664062 189.507812 335.871094 189.382812 336.011719 189.382812 C 336.34375 189.382812 340.148438 187.550781 342.75 186.140625 C 345.820312 184.445312 345.714844 184.515625 347.667969 183.3125 C 348.855469 182.578125 350.128906 181.742188 350.53125 181.425781 C 350.773438 181.21875 351.769531 180.519531 352.730469 179.875 C 354.980469 178.355469 356.183594 177.394531 359.1875 174.796875 C 362.851562 171.621094 364.316406 170.136719 368.765625 165.128906 C 370.039062 163.695312 374.488281 157.34375 375.117188 156.054688 C 375.242188 155.808594 375.605469 155.144531 375.9375 154.570312 C 376.601562 153.453125 377.667969 151.289062 378.292969 149.859375 C 378.503906 149.371094 378.75 148.828125 378.835938 148.636719 C 378.90625 148.445312 379.113281 147.9375 379.253906 147.503906 C 379.671875 146.332031 379.777344 146.035156 380.5625 143.835938 C 380.964844 142.738281 381.347656 141.515625 381.433594 141.132812 C 381.523438 140.75 381.664062 140.207031 381.765625 139.945312 C 381.992188 139.351562 382.011719 138.132812 381.800781 138.007812 C 381.628906 137.886719 380.632812 139.039062 379.601562 140.523438 C 379.238281 141.046875 378.714844 141.761719 378.433594 142.09375 C 378.15625 142.425781 377.40625 143.332031 376.757812 144.117188 C 373.375 148.199219 372.097656 149.597656 368.207031 153.417969 C 365.886719 155.722656 363.480469 158.023438 362.886719 158.550781 C 362.292969 159.074219 361.453125 159.804688 361.019531 160.1875 C 360.582031 160.554688 360.042969 161.042969 359.796875 161.253906 C 358.925781 162.003906 356.410156 164.011719 355.714844 164.5 C 355.3125 164.761719 354.648438 165.285156 354.214844 165.632812 C 352.816406 166.785156 350.601562 168.375 347.496094 170.433594 C 346.34375 171.183594 344.617188 172.335938 343.65625 172.964844 C 341.734375 174.253906 341.386719 174.464844 340.828125 174.707031 C 340.515625 174.847656 338.351562 176.105469 337.460938 176.644531 C 337.320312 176.75 336.917969 176.960938 336.589844 177.132812 C 336.257812 177.324219 335.488281 177.746094 334.894531 178.09375 C 334.300781 178.425781 333.640625 178.773438 333.429688 178.828125 C 333.203125 178.898438 332.679688 179.140625 332.242188 179.386719 C 331.808594 179.613281 330.707031 180.117188 329.78125 180.503906 C 328.875 180.886719 327.898438 181.304688 327.601562 181.445312 C 327.078125 181.671875 326.257812 181.984375 325.070312 182.386719 C 324.738281 182.507812 323.953125 182.789062 323.328125 183.015625 C 322.332031 183.363281 319.574219 184.238281 318.003906 184.691406 C 316.414062 185.144531 314.515625 185.597656 313.117188 185.824219 C 312.261719 185.980469 310.917969 186.207031 310.152344 186.347656 C 306.539062 186.976562 301.460938 187.378906 297.0625 187.34375 C 293.90625 187.34375 288.355469 187.046875 286.070312 186.765625 C 285.40625 186.679688 284.152344 186.539062 283.277344 186.433594 C 282.421875 186.332031 281.464844 186.15625 281.167969 186.070312 C 280.851562 185.964844 280.121094 185.824219 279.507812 185.738281 C 278.898438 185.648438 277.640625 185.40625 276.734375 185.195312 C 275.828125 184.988281 274.691406 184.742188 274.203125 184.65625 C 273.734375 184.566406 273.050781 184.375 272.71875 184.253906 C 272.390625 184.113281 271.605469 183.886719 270.976562 183.714844 C 267.992188 182.945312 262.632812 181.183594 259.71875 179.996094 C 259.25 179.804688 258.148438 179.367188 257.3125 179.019531 C 255.566406 178.320312 255.445312 178.269531 249.859375 175.527344 C 245.566406 173.417969 242.6875 171.828125 239.914062 170.066406 C 236.722656 168.007812 235.117188 166.976562 234.191406 166.367188 C 233.667969 166.019531 233.074219 165.617188 232.847656 165.476562 C 230.472656 163.976562 229.285156 163.207031 227.960938 162.25 C 227.105469 161.621094 225.640625 160.609375 224.714844 159.980469 C 223.808594 159.367188 222.847656 158.671875 222.621094 158.460938 C 222.375 158.234375 221.503906 157.535156 220.683594 156.890625 C 219.847656 156.226562 219.078125 155.601562 218.9375 155.496094 C 218.660156 155.214844 217.753906 154.449219 216.617188 153.523438 C 216.148438 153.140625 215.222656 152.371094 214.558594 151.8125 C 213.894531 151.273438 213.285156 150.816406 213.199219 150.816406 C 213.109375 150.816406 212.21875 150.050781 211.242188 149.109375 C 209.21875 147.207031 208.695312 146.71875 207.210938 145.53125 C 206.636719 145.058594 204.980469 143.558594 203.53125 142.199219 C 202.097656 140.820312 200.527344 139.371094 200.039062 138.953125 C 199.570312 138.550781 198.191406 137.257812 196.988281 136.089844 C 195.78125 134.9375 194.210938 133.488281 193.496094 132.894531 C 192.78125 132.320312 191.351562 131.011719 190.339844 130.015625 C 189.324219 129.039062 187.5625 127.363281 186.410156 126.300781 C 185.277344 125.253906 183.898438 123.945312 183.375 123.402344 C 182.851562 122.878906 181.945312 122.023438 181.367188 121.5 C 180.792969 120.996094 179.257812 119.582031 177.964844 118.378906 C 175.277344 115.847656 173.304688 114.03125 170.96875 111.867188 C 170.0625 111.03125 168.945312 109.964844 168.457031 109.511719 C 167.984375 109.039062 166.953125 108.132812 166.1875 107.46875 C 165.417969 106.808594 164.164062 105.65625 163.394531 104.90625 C 162.628906 104.171875 161.371094 103.054688 160.601562 102.445312 C 159.835938 101.851562 158.542969 100.71875 157.722656 99.929688 C 153.273438 95.707031 150.515625 93.40625 149 92.671875 C 148.25 92.304688 148.003906 92.289062 147.324219 92.636719 Z M 147.324219 92.636719 " fill-opacity="1" fill-rule="nonzero"/><path fill="#e8b3be" d="M 136.921875 101.257812 C 134.8125 103.300781 133.222656 105.132812 131.828125 107.085938 C 131.183594 107.976562 129.488281 110.261719 129.019531 110.855469 C 128.84375 111.101562 127.726562 112.234375 126.539062 113.402344 C 124.253906 115.636719 124.183594 115.777344 124.65625 116.910156 C 124.8125 117.261719 124.882812 117.679688 124.828125 117.835938 C 124.777344 118.011719 124.167969 118.570312 123.46875 119.074219 C 122.769531 119.597656 122.054688 120.140625 121.863281 120.296875 C 116.855469 124.433594 115.164062 126.175781 112.929688 129.476562 C 112.195312 130.558594 111.496094 131.535156 111.375 131.640625 C 111.234375 131.746094 111.132812 131.9375 111.132812 132.058594 C 111.132812 132.164062 110.972656 132.441406 110.78125 132.667969 C 110.589844 132.894531 110.433594 133.15625 110.433594 133.28125 C 110.433594 133.386719 110.207031 133.910156 109.925781 134.433594 C 109.4375 135.339844 108.425781 138.304688 108.007812 140.070312 C 107.832031 140.785156 107.851562 140.976562 108.078125 141.324219 C 108.390625 141.796875 108.707031 141.742188 109.472656 141.046875 C 109.769531 140.785156 110.207031 140.417969 110.449219 140.242188 C 110.710938 140.050781 111.464844 139.40625 112.109375 138.828125 C 112.773438 138.234375 113.820312 137.3125 114.445312 136.789062 C 115.652344 135.742188 118.425781 133.839844 119.59375 133.226562 C 122.527344 131.726562 124.289062 131.027344 124.953125 131.132812 C 125.613281 131.222656 125.527344 131.8125 124.65625 132.964844 C 124.21875 133.558594 123.871094 134.082031 123.871094 134.152344 C 123.871094 134.222656 123.644531 134.570312 123.382812 134.921875 C 122.648438 135.84375 122.300781 136.648438 122.300781 137.382812 C 122.300781 138.429688 123.222656 138.566406 124.742188 137.730469 C 128.074219 135.878906 131.617188 134.519531 134.949219 133.785156 C 135.71875 133.628906 136.921875 133.351562 137.636719 133.15625 C 138.355469 132.984375 139.121094 132.84375 139.332031 132.84375 C 140.046875 132.84375 140.167969 132.425781 140.324219 129.457031 C 140.324219 129.457031 140.324219 129.457031 140.289062 121.328125 C 140.1875 119.074219 140.097656 113.246094 140.097656 108.378906 C 140.097656 103.527344 140.046875 99.425781 139.992188 99.269531 C 139.765625 98.675781 139.15625 99.078125 136.921875 101.257812 Z M 136.921875 101.257812 " fill-opacity="1" fill-rule="nonzero"/><g transform="matrix(1, 0, 0, 1, 134, 201)"><g clip-path="url(#186750000d)"><g fill="#e8b3be" fill-opacity="1"><g transform="translate(0.286991, 47.432031)"><g><path d="M 5 -44.800781 L 21.050781 -44.800781 C 23.769531 -44.800781 26.175781 -44.308594 28.261719 -43.328125 C 30.347656 -42.34375 31.964844 -40.96875 33.109375 -39.199219 C 34.253906 -37.429688 34.828125 -35.421875 34.828125 -33.171875 C 34.828125 -31.164062 34.351562 -29.378906 33.402344 -27.816406 C 32.449219 -26.25 31.136719 -24.976562 29.457031 -23.996094 C 31.914062 -23.175781 33.875 -21.796875 35.347656 -19.851562 C 36.820312 -17.910156 37.558594 -15.589844 37.558594 -12.886719 C 37.558594 -10.414062 36.949219 -8.199219 35.734375 -6.246094 C 34.515625 -4.289062 32.800781 -2.761719 30.59375 -1.65625 C 28.382812 -0.550781 25.855469 0 23.011719 0 L 5 0 Z M 22.800781 -6.105469 C 24.476562 -6.105469 25.9375 -6.414062 27.1875 -7.027344 C 28.433594 -7.640625 29.390625 -8.496094 30.054688 -9.589844 C 30.71875 -10.683594 31.054688 -11.925781 31.054688 -13.316406 C 31.054688 -14.707031 30.710938 -15.941406 30.023438 -17.015625 C 29.339844 -18.089844 28.398438 -18.925781 27.203125 -19.53125 C 26.003906 -20.132812 24.671875 -20.4375 23.199219 -20.4375 L 11.324219 -20.4375 L 11.324219 -6.105469 Z M 21.296875 -26.050781 C 22.726562 -26.070312 23.996094 -26.359375 25.101562 -26.910156 C 26.203125 -27.464844 27.070312 -28.210938 27.691406 -29.152344 C 28.316406 -30.089844 28.628906 -31.15625 28.628906 -32.34375 C 28.628906 -34.246094 27.960938 -35.824219 26.617188 -37.082031 C 25.277344 -38.339844 23.382812 -38.96875 20.925781 -38.96875 L 11.324219 -38.96875 L 11.324219 -26.019531 Z M 21.296875 -26.050781 "/></g></g></g><g fill="#e8b3be" fill-opacity="1"><g transform="translate(40.231549, 47.432031)"><g><path d="M 20.28125 0.460938 C 16.949219 0.460938 13.910156 -0.316406 11.167969 -1.871094 C 8.429688 -3.425781 6.28125 -5.535156 4.726562 -8.191406 C 3.171875 -10.851562 2.394531 -13.757812 2.394531 -16.90625 C 2.394531 -20.015625 3.160156 -22.894531 4.695312 -25.546875 C 6.230469 -28.195312 8.304688 -30.296875 10.921875 -31.851562 C 13.542969 -33.40625 16.40625 -34.183594 19.515625 -34.183594 C 22.726562 -34.183594 25.632812 -33.40625 28.230469 -31.851562 C 30.828125 -30.296875 32.875 -28.199219 34.367188 -25.558594 C 35.859375 -22.921875 36.605469 -20.039062 36.605469 -16.90625 C 36.605469 -16.171875 36.546875 -15.230469 36.421875 -14.085938 L 8.804688 -14.085938 C 9.132812 -12.40625 9.835938 -10.886719 10.910156 -9.527344 C 11.984375 -8.167969 13.335938 -7.097656 14.972656 -6.320312 C 16.609375 -5.542969 18.378906 -5.15625 20.28125 -5.15625 C 22.328125 -5.15625 24.175781 -5.539062 25.820312 -6.304688 C 27.46875 -7.074219 28.84375 -8.140625 29.949219 -9.511719 L 34.796875 -6.472656 C 33.199219 -4.367188 31.097656 -2.683594 28.492188 -1.425781 C 25.882812 -0.167969 23.148438 0.460938 20.28125 0.460938 Z M 30.4375 -18.992188 C 30.335938 -20.734375 29.808594 -22.332031 28.859375 -23.796875 C 27.90625 -25.257812 26.625 -26.417969 25.007812 -27.277344 C 23.390625 -28.136719 21.570312 -28.566406 19.546875 -28.566406 C 17.625 -28.566406 15.859375 -28.136719 14.253906 -27.277344 C 12.648438 -26.417969 11.359375 -25.253906 10.386719 -23.78125 C 9.414062 -22.308594 8.878906 -20.710938 8.777344 -18.992188 Z M 30.4375 -18.992188 "/></g></g></g><g fill="#e8b3be" fill-opacity="1"><g transform="translate(79.255724, 47.432031)"><g><path d="M 18.839844 0.429688 C 15.859375 0.429688 13.117188 -0.347656 10.605469 -1.902344 C 8.097656 -3.457031 6.101562 -5.5625 4.617188 -8.214844 C 3.136719 -10.867188 2.394531 -13.757812 2.394531 -16.882812 C 2.394531 -20.007812 3.136719 -22.898438 4.621094 -25.550781 C 6.109375 -28.199219 8.101562 -30.308594 10.605469 -31.871094 C 13.109375 -33.433594 15.855469 -34.214844 18.839844 -34.214844 C 21.550781 -34.214844 24.054688 -33.503906 26.351562 -32.082031 C 28.648438 -30.660156 30.328125 -28.84375 31.390625 -26.632812 L 31.699219 -33.753906 L 37.222656 -33.753906 L 37.222656 0 L 31.699219 0 L 31.390625 -7.027344 C 30.328125 -4.878906 28.648438 -3.097656 26.351562 -1.6875 C 24.054688 -0.277344 21.550781 0.429688 18.839844 0.429688 Z M 19.78125 -5.492188 C 21.851562 -5.492188 23.765625 -6.003906 25.527344 -7.027344 C 27.289062 -8.050781 28.679688 -9.429688 29.703125 -11.171875 C 30.726562 -12.914062 31.238281 -14.816406 31.238281 -16.878906 C 31.238281 -18.945312 30.726562 -20.851562 29.703125 -22.597656 C 28.679688 -24.347656 27.289062 -25.738281 25.527344 -26.773438 C 23.765625 -27.804688 21.851562 -28.320312 19.78125 -28.320312 C 17.742188 -28.320312 15.855469 -27.804688 14.113281 -26.777344 C 12.375 -25.746094 10.992188 -24.351562 9.972656 -22.597656 C 8.949219 -20.839844 8.4375 -18.933594 8.4375 -16.871094 C 8.4375 -14.808594 8.949219 -12.90625 9.972656 -11.167969 C 10.996094 -9.429688 12.375 -8.050781 14.113281 -7.027344 C 15.855469 -6.003906 17.742188 -5.492188 19.78125 -5.492188 Z M 19.78125 -5.492188 "/></g></g></g><g fill="#e8b3be" fill-opacity="1"><g transform="translate(120.856973, 47.432031)"><g><path d="M 17.460938 0.460938 C 14.757812 0.460938 12.375 -0.164062 10.308594 -1.410156 C 8.242188 -2.660156 6.621094 -4.5625 5.445312 -7.117188 C 4.269531 -9.675781 3.683594 -12.835938 3.683594 -16.601562 L 3.683594 -33.753906 L 9.664062 -33.753906 L 9.664062 -16.601562 C 9.664062 -14.125 10.074219 -12.054688 10.894531 -10.386719 C 11.710938 -8.71875 12.804688 -7.480469 14.175781 -6.675781 C 15.546875 -5.867188 17.089844 -5.460938 18.808594 -5.460938 C 20.527344 -5.460938 22.074219 -5.867188 23.441406 -6.675781 C 24.8125 -7.480469 25.910156 -8.71875 26.726562 -10.386719 C 27.542969 -12.054688 27.953125 -14.125 27.953125 -16.601562 L 27.953125 -33.753906 L 33.9375 -33.753906 L 33.9375 0 L 28.414062 0 L 28.105469 -5.984375 C 27.125 -4.082031 25.714844 -2.53125 23.871094 -1.335938 C 22.03125 -0.136719 19.894531 0.460938 17.460938 0.460938 Z M 17.460938 0.460938 "/></g></g></g><g fill="#e8b3be" fill-opacity="1"><g transform="translate(159.206204, 47.432031)"><g><path d="M 17.304688 0.550781 C 13.953125 0.550781 11.214844 -0.527344 9.097656 -2.683594 C 6.980469 -4.84375 5.921875 -8.132812 5.921875 -12.550781 L 5.921875 -28.351562 L 1.378906 -28.351562 L 1.378906 -33.753906 L 6.105469 -33.753906 L 6.84375 -44.800781 L 11.90625 -44.800781 L 11.90625 -33.753906 L 20.007812 -33.753906 L 20.007812 -28.351562 L 11.90625 -28.351562 L 11.90625 -12.640625 C 11.90625 -10.25 12.449219 -8.417969 13.53125 -7.148438 C 14.617188 -5.882812 16.128906 -5.246094 18.074219 -5.246094 C 18.992188 -5.246094 19.851562 -5.402344 20.652344 -5.707031 L 22.183594 -0.335938 C 20.753906 0.253906 19.125 0.550781 17.304688 0.550781 Z M 17.304688 0.550781 "/></g></g></g><g clip-path="url(#ec9de0fa0d)"><g fill="#e8b3be" fill-opacity="1"><g transform="translate(183.381566, 47.432031)"><g><path d="M 6.964844 13.871094 C 5.777344 13.871094 4.699219 13.765625 3.726562 13.5625 C 2.757812 13.359375 1.769531 13.042969 0.765625 12.613281 L 2.546875 7.273438 C 3.121094 7.539062 3.789062 7.753906 4.558594 7.917969 C 5.324219 8.082031 6.042969 8.164062 6.71875 8.164062 C 7.925781 8.164062 9.019531 7.8125 10.003906 7.117188 C 10.984375 6.421875 11.84375 5.496094 12.582031 4.34375 C 13.316406 3.1875 14.085938 1.625 14.882812 -0.335938 C 14.882812 -0.398438 14.890625 -0.457031 14.914062 -0.507812 C 14.933594 -0.558594 14.953125 -0.601562 14.972656 -0.644531 L 1.441406 -33.753906 L 7.886719 -33.753906 L 17.734375 -8.746094 L 27.464844 -33.753906 L 33.84375 -33.753906 L 20.988281 0 C 19.660156 3.4375 18.34375 6.132812 17.046875 8.085938 C 15.746094 10.039062 14.285156 11.492188 12.65625 12.441406 C 11.03125 13.394531 9.132812 13.871094 6.964844 13.871094 Z M 6.964844 13.871094 "/></g></g></g></g></g></g></svg>